HIERARCHY
ROOT Bip001_Pelvis
{
  OFFSET 33.2923 95.8902 -28.781
  CHANNELS 6 Xposition Yposition Zposition Zrotation Xrotation Yrotation
  JOINT Bip001_Spine
  {
    OFFSET 1.4188e-005 10.2191 -0.0116013
    CHANNELS 3 Zrotation Xrotation Yrotation
    JOINT Bip001_L_Thigh
    {
      OFFSET 11.0458 -10.2192 0.0116197
      CHANNELS 3 Zrotation Xrotation Yrotation
      JOINT Bip001_L_Calf
      {
        OFFSET -0.707118 -44.0221 0.360014
        CHANNELS 3 Zrotation Xrotation Yrotation
        JOINT Bip001_L_Foot
        {
          OFFSET -0.651902 -40.5938 -3.56146
          CHANNELS 3 Zrotation Xrotation Yrotation
          JOINT Bip001_L_Toe0
          {
            OFFSET 0.0530839 -10.2181 13.1504
            CHANNELS 3 Zrotation Xrotation Yrotation
            End Site
            {
              OFFSET -1.02532e-005 0 7.55606
            }
          }
        }
      }
    }
    JOINT Bip001_R_Thigh
    {
      OFFSET -11.0458 -10.2191 0.0115893
      CHANNELS 3 Zrotation Xrotation Yrotation
      JOINT Bip001_R_Calf
      {
        OFFSET 0.706994 -44.0221 0.35984
        CHANNELS 3 Zrotation Xrotation Yrotation
        JOINT Bip001_R_Foot
        {
          OFFSET 0.651786 -40.5938 -3.5613
          CHANNELS 3 Zrotation Xrotation Yrotation
          JOINT Bip001_R_Toe0
          {
            OFFSET -0.0531479 -10.2181 13.1504
            CHANNELS 3 Zrotation Xrotation Yrotation
            End Site
            {
              OFFSET -1.02894e-005 0 7.55606
            }
          }
        }
      }
    }
    JOINT Bip001_Spine1
    {
      OFFSET 1.87041e-005 14.5736 1.08638
      CHANNELS 3 Zrotation Xrotation Yrotation
      JOINT Bip001_Spine2
      {
        OFFSET 2.24614e-005 14.5058 -1.69078
        CHANNELS 3 Zrotation Xrotation Yrotation
        JOINT Bip001_Neck
        {
          OFFSET 2.20278e-005 15.3945 -0.489414
          CHANNELS 3 Zrotation Xrotation Yrotation
          JOINT Bip001_L_Clavicle
          {
            OFFSET 6.06036 -0.000579998 0.00836775
            CHANNELS 3 Zrotation Xrotation Yrotation
            JOINT Bip001_L_UpperArm
            {
              OFFSET 11.5509 -0.0600302 0.00193952
              CHANNELS 3 Zrotation Xrotation Yrotation
              JOINT Bip001_L_Forearm
              {
                OFFSET 25.9523 0.0806089 -2.15551
                CHANNELS 3 Zrotation Xrotation Yrotation
                JOINT Bip001_L_Hand
                {
                  OFFSET 32.2476 0.153767 1.63968
                  CHANNELS 3 Zrotation Xrotation Yrotation
                  JOINT Bip001_L_Finger0
                  {
                    OFFSET 6.04639 -2.20976 5.90322
                    CHANNELS 3 Zrotation Xrotation Yrotation
                    End Site
                    {
                      OFFSET 4.22376 -1.43895 0.606486
                    }
                  }
                  JOINT Bip001_L_Finger1
                  {
                    OFFSET 11.0826 -0.704819 -0.198153
                    CHANNELS 3 Zrotation Xrotation Yrotation
                    End Site
                    {
                      OFFSET 6.20028 -0.397518 -0.0787166
                    }
                  }
                }
              }
            }
          }
          JOINT Bip001_R_Clavicle
          {
            OFFSET -6.06036 -0.000563197 0.00835105
            CHANNELS 3 Zrotation Xrotation Yrotation
            JOINT Bip001_R_UpperArm
            {
              OFFSET -11.5509 -0.0599978 0.00190698
              CHANNELS 3 Zrotation Xrotation Yrotation
              JOINT Bip001_R_Forearm
              {
                OFFSET -25.9523 0.080682 -2.1559
                CHANNELS 3 Zrotation Xrotation Yrotation
                JOINT Bip001_R_Hand
                {
                  OFFSET -32.2476 0.153858 1.63991
                  CHANNELS 3 Zrotation Xrotation Yrotation
                  JOINT Bip001_R_Finger0
                  {
                    OFFSET -6.04641 -2.20974 5.90321
                    CHANNELS 3 Zrotation Xrotation Yrotation
                    End Site
                    {
                      OFFSET -4.22376 -1.43894 0.606474
                    }
                  }
                  JOINT Bip001_R_Finger1
                  {
                    OFFSET -11.0826 -0.704789 -0.198184
                    CHANNELS 3 Zrotation Xrotation Yrotation
                    End Site
                    {
                      OFFSET -6.20028 -0.397501 -0.0787338
                    }
                  }
                }
              }
            }
          }
          JOINT Bip001_Head
          {
            OFFSET 1.09673e-005 11.2744 2.05948
            CHANNELS 3 Zrotation Xrotation Yrotation
            End Site
            {
              OFFSET 2.89576e-005 20.8808 -2.77728e-005
            }
          }
        }
      }
    }
  }
}
MOTION
Frames:	5
Frame Time:	0.04
32.4487 95.8782 -28.4658 -0.0101574 -1.68828 0.607348 0.142611 3.15466 -0.638771 5.18784 -2.60638 7.74127 -0.466104 7.49491 -12.0068 5.7242 -1.45289 -0.208437 -2.87974 -5.40344 4.98304 -2.92889 -2.81519 -1.85266 -0.0593162 10.1981 0.344963 -5.08002 -9.79965 3.70448 1.913 -6.86087 2.40323 0.329882 6.32323 -1.29022 0.329533 6.32326 -1.28987 0.929362 0.933719 -3.2378 -24.7531 0.572787 -3.16967 -49.0136 39.7982 -3.08718 12.7383 0.327445 -26.4 8.35925 0.888553 -2.71528 3.18055e-015 0 -1.59028e-015 3.18055e-015 3.18056e-015 -1.59028e-015 28.0033 7.84131 19.7873 38.9056 40.2391 11.7474 -11.5449 13.1899 12.2913 -13.9873 0.855364 3.29892 3.18055e-015 -3.18055e-015 -0 3.18055e-015 -3.18056e-015 -0 0.794702 11.708 -3.09614 
32.4178 95.8797 -28.4345 -0.0286994 -1.68407 0.685674 0.137712 3.14865 -0.638767 5.27791 -2.62433 7.67012 -0.475785 7.56209 -11.9646 5.18125 -1.80883 -0.173385 -3.10119 -5.14274 5.09524 -2.86144 -2.75446 -1.87153 -0.0905339 10.1434 0.305987 -5.0825 -9.78391 3.69789 1.91287 -6.85782 2.40321 0.312183 6.2957 -1.29015 0.312244 6.29572 -1.28981 0.711445 0.982246 -3.08585 -24.5479 0.544638 -3.12865 -49.0812 39.6904 -3.11515 12.7159 0.333014 -26.5255 8.51851 0.864193 -2.77902 3.18055e-015 3.18055e-015 -0 9.54166e-015 -3.18056e-015 -0 28.1177 7.94529 20.3178 39.7648 41.1185 10.5127 -12.1303 9.26824 13.0194 -12.8913 0.8924 2.96506 -6.36111e-015 -1.59028e-015 3.18055e-015 -9.54166e-015 0 3.18055e-015 0.874884 11.6047 -3.04138 
32.4049 95.8741 -28.409 0.0153325 -1.64885 0.76999 0.120907 3.1354 -0.62977 5.25567 -2.60438 7.46836 -0.508254 7.46267 -11.8805 5.31954 -1.65955 -0.186887 -3.04895 -5.22677 5.07551 -2.88734 -2.76866 -2.09033 -0.104516 10.2015 0.332917 -5.06942 -9.86744 3.78768 1.91285 -6.85738 2.40316 0.277207 6.27014 -1.27015 0.277182 6.27016 -1.27031 0.712393 1.02341 -3.0522 -24.5782 0.509978 -3.1365 -49.1573 39.8776 -3.07128 12.6934 0.0819318 -26.4921 8.54597 0.735613 -2.71262 -6.36111e-015 3.18055e-015 -3.18055e-015 -6.36111e-015 6.36111e-015 -3.18055e-015 28.0087 7.97058 20.6033 40.4551 42.0876 9.73499 -12.4232 6.54425 13.3313 -12.5214 0.864683 2.41859 -8.82781e-032 -3.18055e-015 -1.59028e-015 -8.82782e-032 -3.18056e-015 -1.59028e-015 0.733463 11.5406 -2.96254 
32.3872 95.8662 -28.3786 -0.00382291 -1.64144 0.803814 0.110413 3.13182 -0.62655 5.26463 -2.58973 7.3757 -0.52356 7.42954 -11.9172 5.85486 -1.25929 -0.229041 -2.85754 -5.58413 4.92223 -2.83733 -2.74875 -2.12964 -0.122552 10.2344 0.323688 -5.07714 -9.89947 3.793 1.91286 -6.85883 2.40277 0.254194 6.2543 -1.24555 0.254253 6.25431 -1.24567 0.756449 1.13281 -2.98851 -24.6607 0.400307 -3.11963 -49.2631 39.9896 -2.97573 12.6078 -0.205996 -26.3636 8.53973 0.693183 -2.49933 -3.18055e-015 1.27222e-014 1.59028e-015 6.36111e-015 1.27222e-014 -0 27.8841 7.87075 20.7398 41.2184 42.6972 9.04046 -12.7222 5.02536 13.4733 -12.37 0.811145 1.9304 6.36111e-015 0 -1.59028e-015 6.36111e-015 0 -0 0.524332 11.4852 -2.82198 
32.3679 95.87 -28.3535 -0.0401054 -1.64188 0.832104 0.0984162 3.13088 -0.627628 5.37636 -2.66339 7.51823 -0.493639 7.6522 -11.9554 5.27017 -1.79577 -0.179147 -3.03755 -5.20588 5.07614 -2.75981 -2.6786 -2.12328 -0.138606 10.1276 0.304079 -5.08846 -9.86385 3.75853 1.91574 -6.87741 2.42028 0.230332 6.2543 -1.24646 0.230398 6.25431 -1.24673 0.785594 1.19762 -2.91117 -24.7338 0.319567 -3.03788 -49.42 39.7906 -2.8706 12.4713 -0.339696 -26.161 8.53665 0.739753 -2.33435 6.36111e-015 9.54166e-015 -1.59028e-015 6.36111e-015 9.54167e-015 -3.18055e-015 27.7964 7.78012 20.763 41.8874 42.5398 8.65835 -12.7654 2.84663 13.1842 -10.8467 1.15048 2.5422 -3.18055e-015 0 -0 -3.18055e-015 0 -3.18055e-015 0.351288 11.5324 -2.68385 
